<svg width="674" height="599" viewBox="0 0 674 599" fill="none" xmlns="http://www.w3.org/2000/svg">
<path d="M25.1091 362.931C-11.6447 282.591 1.32836 188.121 48.6755 115.113C94.2494 44.777 190.626 -27.7518 274.789 24.073C313.37 47.8488 331.686 90.5244 334.79 134.348C338.594 188.159 326.761 241.256 324.351 294.829C322.335 338.121 324.893 382.09 333.498 424.586C341.98 466.895 357.458 509.087 385.378 542.527C415.643 578.707 461.857 601.462 509.475 598.586C559.971 595.524 604.526 564.552 642.988 534.334C653.145 526.342 663.042 518.2 672.496 509.224C676.295 505.644 671.29 498.713 666.848 501.807C645.235 517.041 625.324 534.529 603.378 549.34C582.365 563.535 559.724 575.751 535.122 582.563C487.011 595.894 436.105 579.666 401.432 544.521C370.439 513.002 353.526 470.097 343.841 427.671C333.961 384.785 331.206 340.355 333.039 296.38C336.64 206.545 374.081 85.0943 285.874 22.2742C251.414 -2.23986 206.9 -5.53897 167.667 8.41405C123.813 23.9713 86.3432 57.0709 58.3836 93.6983C7.03054 161.044 -15.6064 253.053 12.1621 334.556C15.5171 344.345 19.4685 353.901 24.1529 363.188C24.4591 364.057 25.3421 363.528 25.1091 362.931Z" fill="#FFADF2"/>
</svg>
